<svg width="24" height="24" viewBox="0 0 24 24" fill="none" xmlns="http://www.w3.org/2000/svg">
<path d="M9 14.001H7V16.001H9V14.001Z" fill="black"/>
<path d="M13 6H11V8H13V6Z" fill="black"/>
<path d="M17 6H15V8H17V6Z" fill="black"/>
<path d="M17 10.031H15V12H17V10.031Z" fill="black"/>
<path d="M17 14H15V16H17V14Z" fill="black"/>
<path fill-rule="evenodd" clip-rule="evenodd" d="M9 2H19C20.103 2 21 2.897 21 4V21C21 21.2652 20.8946 21.5196 20.7071 21.7071C20.5196 21.8946 20.2652 22 20 22H4C3.73478 22 3.48043 21.8946 3.29289 21.7071C3.10536 21.5196 3 21.2652 3 21V12C3 10.897 3.897 10 5 10H7V4C7 2.897 7.897 2 9 2ZM11 12H5V20H11V12ZM13 20H19V4H9V10H11C12.103 10 13 10.897 13 12V20Z" fill="black"/>
</svg>
