<svg width="24" height="24" viewBox="0 0 24 24" fill="none" xmlns="http://www.w3.org/2000/svg">
<path d="M17 8H15.441L12.371 11.38L10.891 10.034L14.259 6.327C14.3528 6.22395 14.467 6.14164 14.5945 6.08532C14.7219 6.02901 14.8597 5.99995 14.999 6H17V3L22 7.062L17 11V8Z" fill="black"/>
<path d="M15.441 17H17V14L22 18L17 22V19H14.999C14.8597 19 14.7219 18.971 14.5945 18.9147C14.467 18.8584 14.3528 18.776 14.259 18.673L10 13.987L5.741 18.674C5.64724 18.777 5.53298 18.8594 5.40555 18.9157C5.27811 18.972 5.14032 19.001 5.001 19.001H2V17.001H4.559L8.649 12.5L4.559 8H2V6H5.001C5.14032 5.99995 5.27811 6.02901 5.40555 6.08532C5.53298 6.14164 5.64724 6.22395 5.741 6.327L15.441 17Z" fill="black"/>
</svg>
